<?xml version="1.0" standalone="no"?>
<!DOCTYPE svg PUBLIC "-//W3C//DTD SVG 20010904//EN"
 "http://www.w3.org/TR/2001/REC-SVG-20010904/DTD/svg10.dtd">
<svg version="1.0" xmlns="http://www.w3.org/2000/svg"
 width="839.000000pt" height="297.000000pt" viewBox="0 0 839.000000 297.000000"
 preserveAspectRatio="xMidYMid meet">

<g transform="translate(0.000000,297.000000) scale(0.100000,-0.100000)"
fill="#000000" stroke="none">
<path d="M6448 2843 c6 -3 9 -9 6 -14 -3 -6 -12 -5 -22 3 -15 12 -16 11 -3 -5
12 -16 16 -16 31 -2 9 8 20 12 23 8 4 -3 7 -2 7 4 0 6 -12 10 -27 10 -16 0
-22 -2 -15 -4z"/>
<path d="M6347 2826 c-4 -9 0 -13 11 -11 9 2 22 4 27 4 6 1 3 6 -5 11 -20 13
-27 12 -33 -4z"/>
<path d="M6403 2804 c0 -31 2 -33 15 -20 13 12 13 17 0 35 -14 20 -15 19 -15
-15z"/>
<path d="M6300 2820 c0 -5 7 -7 15 -4 8 4 15 8 15 10 0 2 -7 4 -15 4 -8 0 -15
-4 -15 -10z"/>
<path d="M6237 2799 c7 -7 15 -10 18 -7 3 3 -2 9 -12 12 -14 6 -15 5 -6 -5z"/>
<path d="M6166 2778 c-15 -21 -17 -21 -12 -3 6 19 5 19 -8 1 -8 -10 -19 -15
-24 -12 -9 5 -9 -2 -2 -34 0 -3 5 3 11 13 6 9 14 15 19 12 5 -3 11 -1 15 5 4
6 10 8 15 5 5 -3 8 4 7 15 -2 25 -1 25 -21 -2z"/>
<path d="M6449 2783 c-1 -5 -1 -12 0 -17 1 -4 -28 -7 -63 -4 -36 2 -67 1 -68
-3 -2 -3 -22 -9 -46 -13 -29 -4 -41 -3 -37 4 3 5 1 10 -4 10 -6 0 -11 -6 -11
-14 0 -17 -51 -28 -68 -14 -9 8 -11 7 -6 -6 5 -12 2 -15 -10 -10 -9 3 -16 2
-16 -4 0 -6 -17 -16 -37 -23 -21 -7 -49 -19 -61 -27 -19 -12 -28 -13 -43 -4
-13 9 -20 9 -25 0 -4 -6 -3 -8 4 -4 6 3 13 2 17 -4 3 -5 -7 -15 -22 -22 -49
-22 -133 -88 -133 -105 0 -14 -2 -14 -15 3 -14 18 -14 17 -5 -8 6 -18 6 -28 0
-28 -6 0 -9 -3 -8 -8 2 -4 -14 -24 -34 -45 -21 -21 -68 -73 -104 -117 l-66
-80 -743 0 c-485 0 -746 -3 -750 -10 -9 -14 -1191 -14 -1200 0 -4 6 -180 10
-496 10 l-489 0 -71 -47 -70 -48 1876 -3 c1031 -1 1875 -5 1875 -10 0 -4 -7
-16 -15 -26 -23 -31 -18 -36 33 -36 53 0 49 -3 129 105 78 105 146 169 172
160 16 -5 46 9 120 59 119 78 171 105 274 141 84 30 97 46 20 25 -90 -25 -237
-104 -383 -208 -12 -9 -20 -10 -24 -3 -8 13 121 100 223 151 43 22 127 56 187
77 109 38 109 38 276 38 151 0 192 -5 176 -20 -3 -3 -36 -1 -73 5 -47 8 -71 8
-79 0 -7 -7 2 -10 30 -10 21 0 55 -5 74 -10 29 -8 39 -7 61 9 25 19 26 18 142
-15 184 -53 254 -98 186 -119 -10 -4 -23 -15 -29 -25 -8 -15 -2 -24 40 -54 48
-35 87 -40 76 -9 -4 8 4 17 19 23 14 5 25 12 25 15 0 4 -4 3 -10 0 -6 -3 -7 1
-4 9 9 23 -5 19 -27 -6 -17 -21 -19 -21 -13 -3 5 16 4 17 -5 5 -6 -8 -11 -11
-11 -6 0 5 -7 3 -15 -4 -12 -10 -15 -10 -15 1 0 10 -3 10 -11 2 -16 -16 -39
-5 -39 20 0 11 3 18 6 14 3 -3 15 3 27 14 23 21 42 24 52 9 3 -6 -1 -7 -12 -4
-10 3 -7 -2 7 -10 33 -20 46 -20 29 1 -8 9 16 -4 52 -29 222 -154 380 -382
451 -646 26 -99 35 -304 18 -409 -24 -150 -79 -304 -117 -326 -8 -5 -11 -16
-8 -28 4 -10 2 -19 -3 -19 -6 0 -12 -10 -16 -23 -3 -13 -17 -36 -31 -51 -14
-15 -25 -31 -25 -35 0 -5 -8 -15 -17 -22 -11 -10 -14 -10 -9 -1 4 7 2 12 -4
12 -6 0 -9 4 -6 8 3 5 -8 8 -23 7 -19 -1 -27 2 -24 10 2 7 -3 15 -12 19 -9 3
-14 10 -10 15 3 5 0 13 -6 17 -7 4 -9 3 -5 -4 3 -6 -3 -17 -15 -25 -11 -9 -27
-25 -35 -36 -13 -18 -13 -20 1 -15 8 3 15 12 15 20 0 8 5 14 10 14 6 0 10 -4
10 -10 0 -5 5 -10 11 -10 8 0 7 5 -1 15 -11 13 -10 14 1 10 8 -3 20 -19 28
-36 13 -29 14 -29 32 -13 10 9 19 12 19 6 0 -6 -4 -14 -10 -17 -5 -3 -10 -12
-9 -18 0 -9 2 -9 6 1 2 6 9 12 14 12 6 0 3 -10 -5 -22 -15 -21 -70 -34 -59
-13 4 5 3 7 -2 3 -4 -4 -15 -2 -23 4 -11 10 -17 8 -28 -7 -8 -10 -13 -26 -13
-34 1 -13 2 -12 6 1 2 10 9 18 14 18 6 0 7 5 3 11 -4 7 -1 10 6 7 18 -6 26
-29 9 -26 -7 2 -13 -2 -14 -8 -2 -55 -259 -235 -413 -289 -87 -30 -231 -57
-295 -53 -26 1 -52 -3 -59 -10 -7 -7 -26 -12 -43 -12 -28 0 -34 6 -62 63 -31
64 -31 64 -95 81 -250 68 -442 183 -539 323 -14 20 -19 21 -89 12 -44 -5 -78
-5 -84 0 -6 5 -27 37 -46 70 -37 65 -39 66 -105 41 -22 -8 -24 -13 -15 -29 5
-11 10 -22 10 -25 0 -3 -1033 -7 -2296 -8 l-2296 -3 154 -62 154 -63 795 0
c529 0 798 3 805 10 7 7 270 9 805 6 437 -3 1043 -7 1348 -8 421 -2 555 -6
558 -15 3 -7 28 -47 56 -90 64 -97 160 -194 252 -255 l70 -47 32 25 32 24 47
-25 c26 -14 65 -31 87 -37 33 -10 43 -19 55 -49 8 -21 22 -41 30 -44 64 -24
215 -48 343 -52 l147 -6 16 35 c16 34 21 36 90 47 97 16 257 73 329 117 52 32
61 35 82 24 21 -11 30 -8 92 35 172 122 340 331 423 529 20 48 20 51 4 96 -15
43 -16 50 -1 96 9 27 21 80 27 118 12 74 15 252 5 278 -5 11 8 21 50 38 54 22
56 24 50 54 -43 216 -123 409 -233 560 -51 71 -147 170 -214 222 l-56 44 -139
0 c-131 0 -142 2 -212 30 -131 53 -301 80 -504 80 -5 0 1 16 13 35 l22 35 -32
0 c-27 0 -31 3 -25 18 10 24 15 52 9 52 -2 0 -5 -3 -5 -7z m671 -427 c-5 -5
-21 1 -37 14 -15 13 -20 20 -11 17 10 -3 20 -2 24 4 3 6 11 3 19 -8 8 -10 10
-22 5 -27z m-3347 -163 c-156 -2 -410 -2 -565 0 -156 1 -29 2 282 2 311 0 438
-1 283 -2z m3627 -1323 c0 -5 -4 -10 -10 -10 -5 0 -10 5 -10 10 0 6 5 10 10
10 6 0 10 -4 10 -10z m-3070 -10 c0 -12 -256 -16 -757 -12 -188 1 -429 2 -535
2 -128 0 -188 4 -178 10 21 13 1470 13 1470 0z m3014 -125 c-110 -130 -320
-254 -521 -306 -92 -23 -247 -37 -256 -22 -4 6 32 12 96 16 207 12 420 105
603 265 67 58 108 92 112 92 2 0 -14 -20 -34 -45z"/>
<path d="M7090 2376 c0 -2 7 -7 16 -10 8 -3 12 -2 9 4 -6 10 -25 14 -25 6z"/>
<path d="M6196 2764 c-8 -20 -8 -24 2 -24 4 0 8 9 9 20 2 24 -3 26 -11 4z"/>
<path d="M6248 2773 c7 -3 16 -2 19 1 4 3 -2 6 -13 5 -11 0 -14 -3 -6 -6z"/>
<path d="M6091 2734 c0 -11 3 -14 6 -6 3 7 2 16 -1 19 -3 4 -6 -2 -5 -13z"/>
<path d="M6806 2731 c-3 -4 -33 -11 -66 -14 -44 -4 -66 -11 -75 -24 -16 -21
-14 -22 130 -48 50 -9 116 -27 148 -39 l57 -24 0 48 c0 26 -6 52 -12 57 -17
13 -137 53 -159 53 -10 0 -20 -4 -23 -9z"/>
<path d="M5949 2705 c-1 -3 -2 -8 -3 -12 -1 -5 -5 -15 -10 -23 -7 -12 -6 -13
4 -3 13 12 23 43 14 43 -2 0 -5 -2 -5 -5z"/>
<path d="M6030 2700 c8 -5 20 -10 25 -10 6 0 3 5 -5 10 -8 5 -19 10 -25 10 -5
0 -3 -5 5 -10z"/>
<path d="M5983 2692 c-9 -5 -6 -12 10 -21 19 -13 21 -12 10 1 -7 8 -10 18 -6
21 9 9 1 8 -14 -1z"/>
<path d="M5909 2673 c-13 -16 -12 -17 4 -4 16 13 21 21 13 21 -2 0 -10 -8 -17
-17z"/>
<path d="M5850 2640 c-9 -6 -10 -10 -3 -10 6 0 15 5 18 10 8 12 4 12 -15 0z"/>
<path d="M6443 2593 c15 -2 37 -2 50 0 12 2 0 4 -28 4 -27 0 -38 -2 -22 -4z"/>
<path d="M5825 2581 c-3 -5 0 -13 6 -17 7 -4 9 -3 5 4 -3 5 0 13 6 15 9 4 10
6 1 6 -6 1 -14 -3 -18 -8z"/>
<path d="M6378 2583 c6 -2 18 -2 25 0 6 3 1 5 -13 5 -14 0 -19 -2 -12 -5z"/>
<path d="M5790 2556 c0 -2 7 -6 15 -10 8 -3 15 -1 15 4 0 6 -7 10 -15 10 -8 0
-15 -2 -15 -4z"/>
<path d="M5766 2475 c-3 -8 -1 -15 4 -15 6 0 10 7 10 15 0 8 -2 15 -4 15 -2 0
-6 -7 -10 -15z"/>
<path d="M7067 2433 c-3 -5 6 -9 20 -10 19 -1 22 1 12 8 -17 11 -26 11 -32 2z"/>
<path d="M5290 2370 c-16 -16 -33 -20 -90 -20 -65 0 -124 -15 -115 -29 2 -4
126 -6 276 -5 l272 2 33 36 33 36 -195 0 c-181 0 -195 -1 -214 -20z"/>
<path d="M5070 1948 c-18 -35 -47 -85 -65 -113 -17 -27 -67 -113 -110 -190
-43 -77 -91 -164 -107 -193 l-30 -52 49 -110 c26 -60 50 -110 53 -110 3 0 18
24 33 53 15 28 45 84 66 122 107 197 301 556 324 601 l26 51 -103 2 -103 2
-33 -63z"/>
<path d="M2148 1993 c-357 -3 -458 -6 -458 -16 1 -6 -2 -211 -5 -455 l-6 -443
93 3 93 3 -3 354 c-2 194 -1 364 2 377 l6 24 283 -2 282 -3 3 -377 2 -378 85
0 85 0 0 460 c0 253 -1 459 -2 458 -2 -2 -209 -4 -460 -5z"/>
<path d="M2988 1813 c-2 -98 -2 -234 -1 -303 1 -69 2 -194 2 -277 l1 -153 85
0 85 0 0 380 0 380 228 -1 c125 -1 261 -4 302 -8 85 -7 86 -8 75 -97 l-6 -54
-260 0 -259 0 0 -90 0 -90 340 0 340 0 0 223 c0 122 -3 232 -6 245 l-6 22
-459 0 -459 0 -2 -177z"/>
<path d="M5598 1898 c-2 -51 -2 -258 0 -460 l2 -368 90 0 90 0 0 460 0 460
-90 0 -89 0 -3 -92z"/>
<path d="M1131 1733 c1 -137 1 -301 0 -365 l-1 -118 -285 0 -285 0 0 58 0 57
-92 -4 c-51 -1 -94 -4 -94 -5 -1 0 -3 -64 -5 -141 l-4 -140 473 -3 472 -2 0
439 c0 242 -3 446 -6 455 -5 13 -23 16 -90 16 l-84 0 1 -247z"/>
<path d="M4170 1975 c0 -6 269 -543 391 -782 l63 -123 103 0 c61 0 103 4 103
10 0 9 -293 600 -401 810 l-44 85 -107 3 c-60 1 -108 0 -108 -3z"/>
<path d="M6097 1843 c-4 -75 -7 -185 -7 -245 l0 -108 470 0 470 0 0 80 0 80
-365 0 -365 0 0 85 0 85 365 0 365 0 0 80 0 80 -463 0 -464 0 -6 -137z"/>
<path d="M2153 1643 l-231 -3 -4 -75 -3 -75 238 0 237 0 0 80 c0 44 -1 79 -2
78 -2 -2 -107 -4 -235 -5z"/>
<path d="M3620 1415 c0 -3 38 -82 85 -175 l85 -170 110 0 110 0 -24 48 c-13
26 -51 104 -85 175 l-62 127 -109 0 c-61 0 -110 -2 -110 -5z"/>
<path d="M6857 1403 c-4 -3 -7 -42 -7 -85 l0 -78 -380 0 -381 0 3 -82 3 -83
468 -3 467 -2 0 170 0 170 -83 0 c-46 0 -87 -3 -90 -7z"/>
<path d="M7445 1110 c-3 -5 -1 -10 4 -10 6 0 11 5 11 10 0 6 -2 10 -4 10 -3 0
-8 -4 -11 -10z"/>
<path d="M7476 1095 c4 -8 10 -12 15 -9 5 3 9 0 9 -5 0 -15 -27 -14 -33 2 -4
9 -6 9 -6 0 -1 -7 8 -17 19 -23 14 -7 20 -7 20 0 0 5 5 10 11 10 5 0 7 -6 3
-12 -4 -7 -3 -9 1 -5 5 4 10 15 11 23 1 9 0 13 -3 10 -3 -3 -12 1 -20 9 -19
19 -34 19 -27 0z"/>
<path d="M7424 1062 c4 -3 14 -7 22 -8 9 -1 13 0 10 4 -4 3 -14 7 -22 8 -9 1
-13 0 -10 -4z"/>
<path d="M7398 1025 c-10 -21 -9 -29 6 -43 9 -9 16 -12 15 -7 -4 27 3 27 17 0
14 -27 14 -31 -1 -42 -10 -6 -14 -16 -10 -22 9 -16 25 -13 19 3 -3 7 6 21 20
30 30 19 34 12 9 -18 l-18 -21 23 19 c24 21 25 40 1 42 -32 2 -37 5 -43 22 -3
9 -9 23 -12 31 -5 10 -3 11 7 5 12 -7 12 -5 0 9 -18 22 -19 22 -33 -8z m17
-14 c3 -5 1 -12 -5 -16 -5 -3 -10 1 -10 9 0 18 6 21 15 7z"/>
<path d="M400 910 c31 -27 41 -30 102 -30 41 0 78 -6 91 -14 17 -10 56 -12
175 -8 85 2 150 8 145 12 -4 5 -33 22 -65 39 l-56 31 -214 0 -213 -1 35 -29z"/>
<path d="M7627 831 c-98 -178 -277 -345 -487 -453 -126 -64 -272 -119 -359
-133 l-45 -7 28 -15 c32 -17 67 -13 161 19 66 22 79 27 209 87 83 39 94 41
147 35 89 -10 90 -9 213 104 98 90 216 248 216 287 -1 11 -9 52 -18 92 l-17
71 -48 -87z"/>
<path d="M7239 833 c-13 -15 -16 -21 -6 -14 11 9 17 10 17 2 0 -6 6 -10 13 -8
7 1 11 -6 9 -18 -2 -20 -2 -20 9 -1 9 15 9 21 1 24 -7 2 -9 9 -6 14 5 7 2 8
-6 3 -10 -6 -12 -4 -7 8 9 23 4 21 -24 -10z"/>
<path d="M7304 845 c-10 -8 -14 -14 -9 -15 15 0 40 18 34 24 -3 3 -14 -1 -25
-9z"/>
<path d="M7353 843 c-7 -3 -13 -9 -13 -15 0 -6 7 -8 15 -4 8 3 15 0 15 -6 0
-6 3 -9 6 -5 10 9 -10 34 -23 30z"/>
</g>
</svg>
